#!OML:ASF H:\Punching\Project 1\Capture day 1\Session 1\female.ASF
:FULLY-SPECIFIED
:DEGREES
1306
root 1.36693 15.087 1.14002 16.5067 -34.2226 -5.21288
lowerback -1.1862 1.86777 1.28987
upperback -6.10833 2.54489 1.35448
thorax -5.66378 1.22054 0.589811
lowerneck -9.46273 9.47602 20.5206
upperneck 33.6677 12.2353 -9.71816
head 15.4357 6.6479 -5.56166
rclavicle 8.5781e-014 3.19546e-014
rhumerus -3.74317 20.9862 -69.9395
rradius 132.199
rwrist -15.5611
rhand -30.3219 6.29844
rfingers 7.12502
rthumb -3.62835 -23.6504
lclavicle 8.5781e-014 3.19546e-014
lhumerus 3.38772 -18.1793 60.6575
lradius 138.173
lwrist 0.156499
lhand -26.2407 1.81659
lfingers 7.12502
lthumb 0.313304 31.7961
rfemur -17.841 4.51123 7.73395
rtibia 61.7854
rfoot -5.6506 -12.9398
rtoes -7.16906
lfemur -45.3069 7.70644 -17.8946
ltibia 47.3858
lfoot -15.68 22.7674
ltoes 15.4425
1307
root 1.34236 15.0632 1.06394 16.8415 -35.2911 -5.34652
lowerback -1.23117 1.98942 1.28118
upperback -6.16275 2.69896 1.19731
thorax -5.6886 1.29232 0.426928
lowerneck -9.2255 9.73204 20.7801
upperneck 33.2967 12.7581 -10.1885
head 15.3796 6.84682 -5.70092
rclavicle 1.97511e-014 -3.47873e-016
rhumerus -3.42967 21.2497 -70.0759
rradius 132.166
rwrist -15.4433
rhand -30.2903 6.29224
rfingers 7.12502
rthumb -3.59776 -23.6571
lclavicle 1.97511e-014 -3.47873e-016
lhumerus 3.13618 -17.8111 60.4918
lradius 138.297
lwrist 0.0352288
lhand -26.3224 2.00966
lfingers 7.12502
lthumb 0.234315 31.9893
rfemur -16.5598 4.91196 7.41617
rtibia 58.3556
rfoot -6.49659 -13.0823
rtoes -8.15965
lfemur -45.8382 8.4145 -17.6046
ltibia 47.8738
lfoot -15.8008 23.0036
ltoes 15.4255
1308
root 1.31644 15.039 0.984145 17.1962 -36.3347 -5.51814
lowerback -1.26543 2.10858 1.30311
upperback -6.21522 2.85077 1.04674
thorax -5.71565 1.36151 0.253673
lowerneck -8.9913 9.9875 21.0178
upperneck 32.9239 13.2779 -10.6458
head 15.3257 7.04462 -5.82991
rclavicle 5.51612e-014 -2.57426e-014
rhumerus -3.1134 21.521 -70.2148
rradius 132.132
rwrist -15.3528
rhand -30.2972 6.36165
rfingers 7.12502
rthumb -3.60444 -23.5876
lclavicle 5.51612e-014 -2.57426e-014
lhumerus 2.8784 -17.4347 60.3485
lradius 138.445
lwrist -0.0751038
lhand -26.3727 2.2263
lfingers 7.12502
lthumb 0.185749 32.206
rfemur -15.3915 5.36605 7.16761
rtibia 55.0236
rfoot -7.35718 -13.1372
rtoes -9.27483
lfemur -46.3571 9.09279 -17.2549
ltibia 48.3558
lfoot -15.8986 23.2533
ltoes 15.3683
1309
root 1.28904 15.0144 0.900476 17.5803 -37.3522 -5.7311
lowerback -1.2945 2.22629 1.3542
upperback -6.2673 3.00151 0.901586
thorax -5.74322 1.42874 0.0697445
lowerneck -8.76628 10.2427 21.2399
upperneck 32.5524 13.7929 -11.0909
head 15.2766 7.24098 -5.95028
rclavicle -7.9107e-014 -2.20651e-014
rhumerus -2.79767 21.7918 -70.3585
rradius 132.099
rwrist -15.2794
rhand -30.3162 6.46431
rfingers 7.12502
rthumb -3.6228 -23.4847
lclavicle -7.9107e-014 -2.20651e-014
lhumerus 2.62671 -17.056 60.2196
lradius 138.597
lwrist -0.203232
lhand -26.4436 2.43751
lfingers 7.12502
lthumb 0.117323 32.4172
rfemur -14.3614 5.88166 6.99151
rtibia 51.8458
rfoot -8.17988 -13.0986
rtoes -10.5123
lfemur -46.8752 9.74062 -16.8441
ltibia 48.847
lfoot -15.9849 23.5186
ltoes 15.2868
1310
root 1.2601 14.9896 0.812858 17.9971 -38.3411 -5.98061
lowerback -1.33065 2.34083 1.43024
upperback -6.31934 3.14833 0.759464
thorax -5.76467 1.49276 -0.124353
lowerneck -8.52452 10.4903 21.443
upperneck 32.1654 14.2961 -11.5226
head 15.216 7.43321 -6.06265
rclavicle -8.9422e-014 2.78299e-015
rhumerus -2.48765 22.0616 -70.5077
rradius 132.075
rwrist -15.2225
rhand -30.28 6.47352
rfingers 7.12502
rthumb -3.58781 -23.476
lclavicle -8.9422e-014 2.78299e-015
lhumerus 2.39067 -16.6785 60.1016
lradius 138.734
lwrist -0.352657
lhand -26.5709 2.61803
lfingers 7.12502
lthumb -0.00562249 32.5978
rfemur -13.4826 6.45479 6.88393
rtibia 48.8549
rfoot -8.89475 -13.0211
rtoes -11.959
lfemur -47.3877 10.3487 -16.3739
ltibia 49.327
lfoot -16.0604 23.8086
ltoes 15.2218
1311
root 1.22957 14.9594 0.720146 18.4493 -39.303 -6.25719
lowerback -1.38119 2.44988 1.52291
upperback -6.37714 3.28765 0.617385
thorax -5.78215 1.55205 -0.326692
lowerneck -8.25524 10.7332 21.6357
upperneck 31.7638 14.7946 -11.949
head 15.1447 7.62514 -6.1711
rclavicle 3.31722e-014 -1.13307e-014
rhumerus -2.1966 22.3379 -70.6707
rradius 132.059
rwrist -15.1583
rhand -30.1708 6.35083
rfingers 7.12502
rthumb -3.48245 -23.6005
lclavicle 3.31722e-014 -1.13307e-014
lhumerus 2.14968 -16.3126 59.9967
lradius 138.878
lwrist -0.509075
lhand -26.7436 2.7962
lfingers 7.12502
lthumb -0.172491 32.7759
rfemur -12.779 7.07676 6.82861
rtibia 46.1141
rfoot -9.61816 -12.9822
rtoes -13.8219
lfemur -47.9253 10.9161 -15.851
ltibia 49.8077
lfoot -16.1237 24.1264
ltoes 15.2076
1312
root 1.19789 14.9328 0.623681 18.9352 -40.2399 -6.54952
lowerback -1.44706 2.55159 1.61402
upperback -6.43822 3.41642 0.472768
thorax -5.79342 1.60603 -0.529581
lowerneck -7.97132 10.9746 21.8329
upperneck 31.3464 15.2914 -12.3817
head 15.0691 7.81813 -6.28216
rclavicle -1.00076e-014 -4.37326e-015
rhumerus -1.9166 22.6202 -70.848
rradius 132.049
rwrist -15.0671
rhand -30.0165 6.14317
rfingers 7.12502
rthumb -3.33336 -23.8105
lclavicle -1.00076e-014 -4.37326e-015
lhumerus 1.91723 -15.9648 59.8916
lradius 139.049
lwrist -0.655417
lhand -26.952 3.04856
lfingers 7.12502
lthumb -0.373707 33.028
rfemur -12.2226 7.70377 6.81847
rtibia 43.6431
rfoot -10.4826 -13.0313
rtoes -15.8607
lfemur -48.4476 11.4362 -15.2906
ltibia 50.2477
lfoot -16.1873 24.4797
ltoes 15.2688
1313
root 1.16523 14.9055 0.52223 19.4497 -41.1429 -6.84618
lowerback -1.53347 2.64054 1.70271
upperback -6.50928 3.52713 0.324828
thorax -5.80291 1.65084 -0.73299
lowerneck -7.63028 11.2084 22.0295
upperneck 30.8966 15.7876 -12.8278
head 14.9723 8.0131 -6.39902
rclavicle 4.53602e-014 -3.97569e-015
rhumerus -1.66671 22.9287 -71.0479
rradius 132.037
rwrist -14.9249
rhand -29.8737 5.92374
rfingers 7.12502
rthumb -3.19552 -24.0321
lclavicle 4.53602e-014 -3.97569e-015
lhumerus 1.6988 -15.6177 59.7793
lradius 139.234
lwrist -0.759128
lhand -27.1722 3.33746
lfingers 7.12502
lthumb -0.586424 33.3164
rfemur -11.8045 8.27984 6.84082
rtibia 41.4998
rfoot -11.5242 -13.1732
rtoes -18.1726
lfemur -48.9801 11.91 -14.7016
ltibia 50.6538
lfoot -16.2322 24.8617
ltoes 15.394
1314
root 1.13186 14.8782 0.416276 19.9775 -42.0031 -7.13286
lowerback -1.63891 2.71398 1.77889
upperback -6.57853 3.61578 0.170436
thorax -5.79967 1.6852 -0.934166
lowerneck -7.26477 11.4411 22.232
upperneck 30.4171 16.2858 -13.2909
head 14.8653 8.21071 -6.52243
rclavicle -3.9993e-014 7.55382e-015
rhumerus -1.42691 23.2567 -71.2636
rradius 132.012
rwrist -14.731
rhand -29.7686 5.73859
rfingers 7.12502
rthumb -3.09404 -24.2187
lclavicle -3.9993e-014 7.55382e-015
lhumerus 1.51316 -15.2545 59.6607
lradius 139.436
lwrist -0.782597
lhand -27.3609 3.63067
lfingers 7.12502
lthumb -0.768613 33.609
rfemur -11.5001 8.72371 6.88916
rtibia 39.688
rfoot -12.6713 -13.4236
rtoes -20.7411
lfemur -49.5051 12.3327 -14.0955
ltibia 51
lfoot -16.2439 25.2659
ltoes 15.5771
1315
root 1.09799 14.8515 0.306277 20.5008 -42.8078 -7.39823
lowerback -1.75605 2.76465 1.83972
upperback -6.64154 3.67295 0.0123847
thorax -5.78411 1.70474 -1.12866
lowerneck -6.88071 11.6757 22.4369
upperneck 29.9103 16.7911 -13.7745
head 14.7525 8.41243 -6.65211
rclavicle 6.71892e-014 3.97569e-015
rhumerus -1.1942 23.6195 -71.4901
rradius 131.962
rwrist -14.4723
rhand -29.7418 5.62576
rfingers 7.12502
rthumb -3.0681 -24.3319
lclavicle 6.71892e-014 3.97569e-015
lhumerus 1.37818 -14.8617 59.5213
lradius 139.635
lwrist -0.723195
lhand -27.5488 3.91344
lfingers 7.12502
lthumb -0.950094 33.8911
rfemur -11.2898 8.98372 6.96762
rtibia 38.2148
rfoot -13.9034 -13.7439
rtoes -23.2511
lfemur -50.0148 12.7025 -13.4802
ltibia 51.2911
lfoot -16.2164 25.6744
ltoes 15.781
1316
root 1.06365 14.8258 0.193106 21 -43.5379 -7.6347
lowerback -1.88049 2.78746 1.89443
upperback -6.68854 3.69211 -0.151188
thorax -5.74828 1.70595 -1.32337
lowerneck -6.49565 11.9158 22.6461
upperneck 29.3816 17.3047 -14.2774
head 14.6412 8.61863 -6.78683
rclavicle 1.12226e-013 1.98785e-015
rhumerus -0.961429 24.011 -71.7244
rradius 131.889
rwrist -14.1775
rhand -29.7947 5.59116
rfingers 7.12502
rthumb -3.11923 -24.3658
lclavicle 1.12226e-013 1.98785e-015
lhumerus 1.28022 -14.4528 59.3795
lradius 139.836
lwrist -0.597152
lhand -27.7159 4.15356
lfingers 7.12502
lthumb -1.11149 34.1304
rfemur -11.1472 9.04631 7.08784
rtibia 37.0336
rfoot -15.191 -14.0823
rtoes -25.4816
lfemur -50.4919 13.0138 -12.8578
ltibia 51.5212
lfoot -16.1443 26.0666
ltoes 15.9722
